# xmcd
#
# Track frame offsets: 
#        182
#        16007
#        38725
#        54282
#        72242
#        88340
#        106500
#        131702
#        144807
#
# Disc length: 2188 seconds
#
# Revision: 3
# Processed by: cddbd v1.5.2PL0 Copyright (c) Steve Scherf et al.
# Submitted via: ExactAudioCopy v0.99pb4
#
DISCID=69088a09
DTITLE=Johnny Winter - White, Hot and Blue
DYEAR=1978
DGENRE=Rock
TTITLE0=Walkin' By Myself
TTITLE1=Slidin' In
TTITLE2=Divin' Duck
TTITLE3=One Step At A Time
TTITLE4=Nickel Blues
TTITLE5=E-Z Rider
TTITLE6=Last Night
TTITLE7=Messin' With The Kid
TTITLE8=Honest I Do
EXTD=YEAR: 1978
EXTT0=
EXTT1=\n
EXTT2=
EXTT3=
EXTT4=
EXTT5=
EXTT6=
EXTT7=
EXTT8=
PLAYORDER=
